<svg width="28" height="27" viewBox="0 0 28 27" fill="none" xmlns="http://www.w3.org/2000/svg">
<path d="M12.6 6.53333H15.4C16.1426 6.53333 16.8548 6.80867 17.3799 7.29876C17.905 7.78886 18.2 8.45357 18.2 9.14667V10.4533H15.4V9.14667H12.6V16.9867H15.4V15.68H18.2V16.9867C18.2 17.6798 17.905 18.3445 17.3799 18.8346C16.8548 19.3247 16.1426 19.6 15.4 19.6H12.6C11.8574 19.6 11.1452 19.3247 10.6201 18.8346C10.095 18.3445 9.8 17.6798 9.8 16.9867V9.14667C9.8 8.45357 10.095 7.78886 10.6201 7.29876C11.1452 6.80867 11.8574 6.53333 12.6 6.53333ZM14 0C15.8385 0 17.659 0.337979 19.3576 0.994641C21.0561 1.6513 22.5995 2.61379 23.8995 3.82714C25.1995 5.04049 26.2307 6.48095 26.9343 8.06627C27.6379 9.65159 28 11.3507 28 13.0667C28 16.5322 26.525 19.8557 23.8995 22.3062C21.274 24.7567 17.713 26.1333 14 26.1333C12.1615 26.1333 10.341 25.7954 8.64243 25.1387C6.94387 24.482 5.40053 23.5195 4.1005 22.3062C1.475 19.8557 0 16.5322 0 13.0667C0 9.60117 1.475 6.27761 4.1005 3.82714C6.72601 1.37666 10.287 0 14 0ZM14 2.61333C11.0296 2.61333 8.18081 3.71466 6.0804 5.67504C3.98 7.63542 2.8 10.2943 2.8 13.0667C2.8 15.8391 3.98 18.4979 6.0804 20.4583C8.18081 22.4187 11.0296 23.52 14 23.52C16.9704 23.52 19.8192 22.4187 21.9196 20.4583C24.02 18.4979 25.2 15.8391 25.2 13.0667C25.2 10.2943 24.02 7.63542 21.9196 5.67504C19.8192 3.71466 16.9704 2.61333 14 2.61333Z" fill="white"/>
</svg>
