<svg width="28" height="28" viewBox="0 0 28 28" fill="none" xmlns="http://www.w3.org/2000/svg">
<mask id="mask0_1_19" style="mask-type:alpha" maskUnits="userSpaceOnUse" x="0" y="0" width="28" height="28">
<rect width="28" height="28" fill="white"/>
</mask>
<g mask="url(#mask0_1_19)">
<path d="M13.9993 13.9999C14.641 13.9999 15.1903 13.7714 15.6473 13.3145C16.1042 12.8576 16.3327 12.3083 16.3327 11.6666C16.3327 11.0249 16.1042 10.4756 15.6473 10.0187C15.1903 9.56173 14.641 9.33325 13.9993 9.33325C13.3577 9.33325 12.8084 9.56173 12.3514 10.0187C11.8945 10.4756 11.666 11.0249 11.666 11.6666C11.666 12.3083 11.8945 12.8576 12.3514 13.3145C12.8084 13.7714 13.3577 13.9999 13.9993 13.9999ZM13.9993 22.5749C16.3716 20.3971 18.1313 18.4187 19.2785 16.6395C20.4257 14.8603 20.9993 13.2805 20.9993 11.8999C20.9993 9.78048 20.3237 8.04506 18.9723 6.69367C17.6209 5.34228 15.9632 4.66659 13.9993 4.66659C12.0355 4.66659 10.3778 5.34228 9.02643 6.69367C7.67504 8.04506 6.99935 9.78048 6.99935 11.8999C6.99935 13.2805 7.57296 14.8603 8.72018 16.6395C9.8674 18.4187 11.6271 20.3971 13.9993 22.5749ZM13.9993 25.6666C10.8688 23.0027 8.5306 20.5284 6.98477 18.2437C5.43893 15.9589 4.66602 13.8444 4.66602 11.8999C4.66602 8.98325 5.60421 6.65964 7.4806 4.92909C9.35699 3.19853 11.5299 2.33325 13.9993 2.33325C16.4688 2.33325 18.6417 3.19853 20.5181 4.92909C22.3945 6.65964 23.3327 8.98325 23.3327 11.8999C23.3327 13.8444 22.5598 15.9589 21.0139 18.2437C19.4681 20.5284 17.1299 23.0027 13.9993 25.6666Z" fill="white"/>
</g>
</svg>
